<?xml version="1.0" encoding="iso-8859-1"?>
<!-- Uploaded to: SVG Repo, www.svgrepo.com, Generator: SVG Repo Mixer Tools -->
<svg fill="#000000" height="800px" width="800px" version="1.1" id="Layer_1" xmlns="http://www.w3.org/2000/svg" xmlns:xlink="http://www.w3.org/1999/xlink" 
	 viewBox="0 0 512 512" xml:space="preserve">
<g>
	<g>
		<path d="M490.667,0H21.333C9.552,0,0,9.551,0,21.333v128v341.333C0,502.449,9.552,512,21.333,512h469.333
			c11.782,0,21.333-9.551,21.333-21.333V149.333v-128C512,9.551,502.45,0,490.667,0z M469.334,469.334H42.667v-0.001V170.667
			h426.667V469.334z M469.334,128H42.667V42.667h426.667V128z"/>
	</g>
</g>
<g>
	<g>
		<path d="M85.333,64C73.557,64,64,73.557,64,85.333s9.557,21.333,21.333,21.333s21.333-9.557,21.333-21.333S97.109,64,85.333,64z"
			/>
	</g>
</g>
<g>
	<g>
		<path d="M149.333,64C137.557,64,128,73.557,128,85.333s9.557,21.333,21.333,21.333s21.333-9.557,21.333-21.333
			S161.109,64,149.333,64z"/>
	</g>
</g>
<g>
	<g>
		<path d="M213.333,64C201.557,64,192,73.557,192,85.333s9.557,21.333,21.333,21.333s21.333-9.557,21.333-21.333
			S225.109,64,213.333,64z"/>
	</g>
</g>
<g>
	<g>
		<path d="M426.667,320.002c-11.782,0-21.333,9.551-21.333,21.333v33.83l-91.582-91.582c-8.331-8.331-21.839-8.331-30.17,0
			c-8.331,8.331-8.331,21.839,0,30.17l91.582,91.582h-33.83c-11.782,0-21.333,9.551-21.333,21.333
			c0,11.782,9.55,21.332,21.332,21.332h85.333c0.703,0,1.405-0.037,2.105-0.106c0.315-0.031,0.621-0.09,0.933-0.135
			c0.377-0.054,0.756-0.098,1.13-0.173c0.358-0.071,0.704-0.169,1.055-0.258c0.324-0.081,0.649-0.152,0.969-0.249
			c0.344-0.104,0.677-0.233,1.013-0.354c0.32-0.115,0.642-0.22,0.957-0.35c0.314-0.13,0.615-0.283,0.921-0.428
			c0.325-0.153,0.653-0.297,0.971-0.468c0.293-0.157,0.572-0.336,0.857-0.506c0.312-0.186,0.628-0.363,0.932-0.566
			c0.315-0.211,0.611-0.445,0.913-0.671c0.255-0.191,0.516-0.368,0.764-0.571c0.535-0.439,1.05-0.903,1.54-1.392
			c0.008-0.007,0.016-0.014,0.023-0.021c0.007-0.007,0.014-0.016,0.021-0.023c0.488-0.49,0.952-1.004,1.392-1.54
			c0.206-0.248,0.383-0.509,0.574-0.764c0.226-0.302,0.461-0.598,0.671-0.913c0.204-0.304,0.38-0.62,0.566-0.932
			c0.17-0.285,0.349-0.564,0.506-0.857c0.17-0.318,0.315-0.646,0.468-0.971c0.145-0.306,0.297-0.607,0.428-0.921
			c0.13-0.315,0.236-0.637,0.35-0.957c0.121-0.337,0.25-0.669,0.354-1.013c0.097-0.32,0.168-0.646,0.249-0.969
			c0.089-0.351,0.187-0.698,0.258-1.055c0.074-0.375,0.118-0.753,0.173-1.13c0.044-0.311,0.104-0.617,0.135-0.933
			c0.069-0.701,0.106-1.404,0.106-2.107v-85.332C448,329.553,438.45,320.002,426.667,320.002z"/>
	</g>
</g>
</svg>